<svg width="49" height="59" viewBox="0 0 49 59" fill="none" xmlns="http://www.w3.org/2000/svg">
<path fill-rule="evenodd" clip-rule="evenodd" d="M22.6523 3.28587C22.8528 1.70397 21.7502 0.220928 20.1466 0.0231894C18.5429 -0.174549 17.0395 0.913013 16.839 2.49492L16.0372 8.0316C15.8367 9.61351 16.9392 11.0965 18.5429 11.2943C20.1466 11.492 21.65 10.4045 21.8505 8.82255L22.6523 3.28587ZM14.7337 58.6528C4.91122 58.6528 0 52.2263 0 52.2263L3.50802 47.4806C3.50802 47.4806 7.81786 52.9184 14.6334 52.9184C18.0412 52.9184 21.0481 51.4353 21.0481 48.2715C21.0481 45.4318 17.3458 43.9548 13.1155 42.2671C7.47772 40.0179 0.902055 37.3946 0.902055 30.6728C0.902055 23.7519 7.11625 20.4893 14.6334 20.4893C19.1437 20.4893 26.7612 21.9723 26.7612 27.509V30.9694H20.4467V29.0909C20.4467 26.9158 17.2394 26.0259 14.9341 26.0259C10.8247 26.0259 8.11854 27.509 8.11854 30.3762C8.11854 33.3522 11.8436 34.7742 16.0901 36.3954C21.7192 38.5444 28.2646 41.0432 28.2646 47.9749C28.2646 54.5003 22.4513 58.6528 14.7337 58.6528ZM39.2901 6.25219C40.3926 7.33976 40.4928 9.21827 39.2901 10.3058L35.2809 14.3595C34.1784 15.447 32.274 15.5459 31.1715 14.3595C30.069 13.2719 29.9688 11.3934 31.1715 10.3058L35.1807 6.25219C36.2832 5.16463 38.1876 5.16463 39.2901 6.25219ZM45.9058 26.7182C47.5095 26.3228 48.4116 24.642 47.9104 23.159C47.4093 21.577 45.8056 20.6872 44.3022 21.1816L38.7896 22.7635C37.1859 23.159 36.2839 24.8397 36.785 26.3228C37.1859 27.9047 38.8898 28.7945 40.3932 28.3002L45.9058 26.7182Z" fill="#02AD87"/>
</svg>
